<?xml version="1.0" encoding="UTF-8" standalone="no"?>
<!-- Created with Inkscape (http://www.inkscape.org/) -->

<svg
   xmlns:dc="http://purl.org/dc/elements/1.1/"
   xmlns:cc="http://creativecommons.org/ns#"
   xmlns:rdf="http://www.w3.org/1999/02/22-rdf-syntax-ns#"
   xmlns:svg="http://www.w3.org/2000/svg"
   xmlns="http://www.w3.org/2000/svg"
   xmlns:sodipodi="http://sodipodi.sourceforge.net/DTD/sodipodi-0.dtd"
   xmlns:inkscape="http://www.inkscape.org/namespaces/inkscape"
   width="210mm"
   height="297mm"
   viewBox="0 0 744.09448819 1052.3622047"
   id="svg2"
   version="1.1"
   inkscape:version="0.91 r13725"
   sodipodi:docname="kliemannsland_logo.svg">
  <defs
     id="defs4" />
  <sodipodi:namedview
     id="base"
     pagecolor="#ffffff"
     bordercolor="#666666"
     borderopacity="1.0"
     inkscape:pageopacity="0.0"
     inkscape:pageshadow="2"
     inkscape:zoom="1.4"
     inkscape:cx="377.52512"
     inkscape:cy="1034.2857"
     inkscape:document-units="px"
     inkscape:current-layer="layer1"
     showgrid="false"
     inkscape:window-width="1920"
     inkscape:window-height="1138"
     inkscape:window-x="-8"
     inkscape:window-y="-8"
     inkscape:window-maximized="1" />
  <metadata
     id="metadata7">
    <rdf:RDF>
      <cc:Work
         rdf:about="">
        <dc:format>image/svg+xml</dc:format>
        <dc:type
           rdf:resource="http://purl.org/dc/dcmitype/StillImage" />
        <dc:title />
      </cc:Work>
    </rdf:RDF>
  </metadata>
  <g
     inkscape:label="Ebene 1"
     inkscape:groupmode="layer"
     id="layer1">
    <path
       style="fill:#000000;fill-opacity:1;fill-rule:evenodd;stroke:#ffffff;stroke-width:1px;stroke-linecap:butt;stroke-linejoin:miter;stroke-opacity:0"
       d="m 452.58077,125.37648 c 0.2,0.1 0.4,0.5 0.3,0.7 -0.1,0.4 -0.3,0.7 -0.5,1.1 -0.2,0.4 -0.4,0.8 -0.4,1.3 0,0.3 0.1,0.6 0.3,0.8 0.9,0.7 1.8,1.3 2.7,2 0.8,0.6 1.6,1.2 2.5,1.8 0.7,0.5 1.4,0.9 2.3,1.2 0.9,0.3 1.6,0.8 2.4,1.3 0.5,0.4 1.1,0.8 1.7,1.1 0.9,0.5 1.9,1.1 2.8,1.6 0.3,0.2 0.6,0.4 0.9,0.5 1.3,0.5 2.5,1.3 3.9,1.7 0.2,0 0.3,0.1 0.5,0.2 0.9,0.6 1.9,0.8 2.7,1.5 1.1,0.4 2,1 3,1.6 0.6,0.4 1.2,0.6 1.9,0.8 1.1,0.2 2.1,0.5 3.2,0.7 1,0.2 2,0.4 3,0.4 0.7,0 1.5,0.1 2.2,0.1 0.8,0 1.7,0 2.5,-0.1 0.8,-0.1 1.5,-0.4 2.1,-1 0.2,-0.2 0.3,-0.3 0.5,-0.5 0.6,-0.6 1.2,-1 2,-1.2 0.7,-0.2 1.3,-0.5 1.8,-1 0.3,-0.3 0.7,-0.6 1.1,-0.8 0.4,-0.2 0.6,-0.5 0.8,-0.8 0.1,-0.3 0.2,-0.5 0.4,-0.8 0.2,-0.6 0.6,-1.1 1.1,-1.5 1.3,-1.1 2.2,-2.6 3.2,-3.9 0.5,-1.2 1.4,-2.2 2.2,-3.2 0.1,-0.2 0.3,-0.3 0.4,-0.5 0.1,-0.5 0.4,-0.8 0.7,-1.2 0.9,-1.1 1.7,-2.3 2.6,-3.4 1.1,-1.4 2.1,-2.8 3.2,-4.2 0.3,-0.5 0.7,-0.9 1.1,-1.3 0.9,-0.8 1.5,-1.8 2.3,-2.7 0.4,-0.5 0.8,-1.1 1.1,-1.7 0.5,-0.8 1,-1.7 1.4,-2.5 0.6,-1.1 1.2,-2.2 1.8,-3.3 0.6,-1.1 1,-2.1 1.6,-3.2 0.8,-1.4 1.2,-2.9 1.2,-4.5 0,-0.7 0,-1.3 0.1,-2 -0.4,-0.700002 -0.5,-1.500002 -0.6,-2.400012 0,-0.5 -0.1,-0.9 -0.1,-1.4 0,-0.3 0,-0.7 -0.1,-1 0,-0.5 -0.1,-1 -0.1,-1.5 0,-1.9 -0.5,-3.7 -1.5,-5.4 -0.9,-1.6 -1.5,-3.3 -2.5,-4.8 -0.5,-0.8 -0.9,-1.7 -1.4,-2.5 -0.3,-0.6 -0.8,-1.1 -1.4,-1.4 -1.1,-0.7 -2.3,-1.3 -3,-2.4 -0.1,-0.2 -0.3,-0.3 -0.5,-0.4 -1.2,-0.9 -2.3,-1.8 -3.5,-2.7 -0.4,-0.3 -0.7,-0.5 -1.1,-0.7 -1.3,-0.6 -2.6,-1.4 -4,-1.9 -0.2,-0.1 -0.4,-0.2 -0.6,-0.3 -0.6,-0.3 -1.2,-0.7 -1.8,-0.9 -1.4,-0.6 -2.6,-1.4 -3.9,-2.1 -1.2,-0.7 -2.3,-1.5 -3.7,-1.7 -0.3,0 -0.5,-0.2 -0.8,-0.4 -0.2,-0.1 -0.4,-0.2 -0.6,-0.3 -0.1,0 -0.3,0 -0.5,0.1 -0.1,0 -0.2,0.1 -0.2,0.2 -0.6,1 -1.3,2 -1.9,3 -0.1,0.2 -0.1,0.4 -0.2,0.6 -0.1,0.2 0,0.5 0.2,0.6 0.3,0.2 0.5,0.4 0.8,0.7 0.1,0.1 0.1,0.2 0,0.3 -0.1,0.1 -0.3,0.3 -0.4,0.3 -0.2,0 -0.4,-0.2 -0.6,-0.3 -0.5,-0.2 -0.7,-0.2 -1,0.3 -0.7,1.3 -1.4,2.6 -2.2,3.9 -0.1,0.2 -0.1,0.5 0.1,0.6 0.5,0.4 0.9,0.9 1.5,1.2 1.1,0.6 2,1.5 3.1,2.1 0.2,0.1 0.3,0.5 0.1,0.8 l -0.1,0.1 c -1.2,1.6 -2.5,3.2 -3.8,4.8 -1.3,1.5 -2.5,3.2 -3.7,4.9 -1.3,1.8 -2.5,3.6 -3.8,5.4 -1.8,2.3 -3.5,4.600012 -5.1,7.000012 -1.7,2.7 -3.3,5.5 -5,8.3 -0.8,1.3 -1.6,2.6 -2.4,3.9 -1.1,1.7 -2.1,3.4 -3.2,5 -0.3,0.4 -0.6,0.8 -0.9,1.2 -0.1,0.2 -0.4,0.2 -0.6,0 -0.3,-0.2 -0.6,-0.4 -0.8,-0.6 -0.9,-0.7 -2.2,-1.9 -3.2,-2.4 l -5.6,7.1 m 57.1,-23.1 c 0,0.4 -0.2,0.8 -0.4,1.1 -0.6,1 -1.3,2 -1.9,3 0,0 -0.1,0.1 -0.1,0.2 -0.7,1.9 -2,3.4 -2.9,5.2 -0.2,0.4 -0.5,0.8 -0.8,1.1 -0.3,0.3 -0.5,0.6 -0.7,0.9 -0.2,0.3 -0.5,0.6 -0.7,0.9 -0.7,0.9 -1.5,1.7 -2.2,2.6 -0.6,0.9 -1.3,1.7 -1.9,2.6 -0.2,0.3 -0.4,0.5 -0.6,0.8 -1.2,1.5 -2.4,3 -3.4,4.7 -0.7,1.1 -1.5,2.1 -2.2,3.2 -0.5,0.8 -1,1.6 -1.7,2.3 -0.6,0.7 -1.3,1.3 -2,1.9 -0.3,0.3 -0.7,0.4 -1.1,0.4 -1.2,0.1 -2.5,0 -3.7,-0.3 -0.1,0 -0.2,0 -0.3,-0.1 -1.4,-0.7 -2.8,-1.3 -4,-2.2 -0.6,-0.5 -1.2,-0.8 -1.9,-1 -0.9,-0.2 -1.7,-0.7 -2.5,-1.1 -0.3,-0.2 -0.6,-0.3 -0.9,-0.5 -1,-0.4 -0.8,-0.7 -0.5,-1.4 0.5,-1.1 1.2,-2.2 1.9,-3.2 1.9,-2.9 3.7,-5.9 5.6,-8.9 0.7,-1.2 1.4,-2.3 2.1,-3.5 1.3,-2.2 2.6,-4.4 4.1,-6.5 0.5,-0.7 1,-1.3 1.6,-2 0.3,-0.4 0.6,-0.8 0.9,-1.2 0.7,-1.1 1.5,-2.100002 2.3,-3.200012 0.9,-1.2 1.7,-2.4 2.5,-3.6 0.9,-1.3 1.9,-2.7 3,-3.9 1.3,-1.6 2.6,-3.2 3.9,-4.7 0.2,-0.2 0.5,-0.3 0.8,-0.1 1.5,1.1 2.9,2.1 4.4,3.2 0.5,0.3 0.8,0.8 1.1,1.3 0.7,1.2 1.3,2.4 1.9,3.6 0.3,0.6 0.5,1.3 0.5,2 0,1.1 0.1,2.2 0.1,3.50001 -0.2,0.800002 -0.2,1.800002 -0.3,2.900002 z"
       id="d"
       inkscape:connector-curvature="0"
       inkscape:label="d" />
    <path
       style="fill:#000000;fill-opacity:1;fill-rule:evenodd;stroke:#ffffff;stroke-width:1px;stroke-linecap:butt;stroke-linejoin:miter;stroke-opacity:0"
       d="m 72.280784,115.57648 c -0.1,-0.5 -0.3,-1.1 -0.5,-1.6 -0.5,-1.6 -0.9,-3.3 -1.1,-4.9 0,-0.1 -0.1,-0.2 0,-0.3 -0.2,-0.8 -0.4,-1.5 -0.6,-2.3 -0.2,-0.6 -0.7,-0.9 -1.3,-0.9 -1.3,-0.1 -5.1,-0.8 -8.3,-1.2 l 0.1,-0.3 c -0.1,0.1 -0.2,0.3 -0.4,0.3 -1.1,0 -2.1,0 -3.1,-0.1 -2.5,-0.2 -5,-0.2 -7.5,-0.5 -1.7,-0.2 -3.4,-0.3 -5.1,-0.5 -1.5,-0.1 -3.1,-0.3 -4.7,-0.5 -1.7,-0.2 -3.3,-0.5 -5,-0.8 -0.3,-0.1 -0.6,-0.2 -0.8,-0.3 -0.1,-0.1 -0.2,-0.3 -0.2,-0.4 -0.1,-0.2 0,-0.3 0,-0.5 0.4,-2.200002 0.9,-4.300012 1.4,-6.500012 0.3,-1.5 0.8,-3.1 1.2,-4.6 0.2,-0.8 0.5,-1.5 0.7,-2.3 0.6,-2.5 1.5,-5.1 2.3,-7.6 0.9,-2.7 1.9,-5.2 3,-7.8 0.9,-2.2 2.1,-4.3 3.3,-6.3 1.1,-1.8 2.4,-3.5 3.6,-5.2 0.6,-0.8 1.3,-1.6 2.2,-2.1 0.3,-0.1 0.4,-0.4 0.4,-0.7 0.1,-0.4 0,-0.8 -0.3,-1.1 -0.5,-0.5 -0.9,-0.9 -1.5,-1.2 -0.6,-0.3 -1.1,-0.6 -1.7,-0.8 -1.1,-0.5 -2.1,-1 -2.9,-1.8 -0.1,-0.1 -0.2,-0.2 -0.3,-0.2 -0.8,-0.3 -1.4,-0.8 -2,-1.3 -0.2,-0.2 -0.4,-0.3 -0.7,-0.4 -0.7,-0.1 -1.3,-0.3 -2,-0.4 -0.2,-0.1 -0.5,0 -0.7,0 -0.3,0.1 -0.6,0.5 -0.4,0.8 0.1,0.2 0.2,0.4 0.3,0.6 0.1,0.2 0.3,0.4 0.4,0.6 -0.5,0.7 -1,1.4 -1.5,2.1 -1.1,1.5 -2.2,2.9 -3.1,4.5 -2,3.4 -3.8,6.8 -5.1,10.4 -0.4,1.2 -1,2.4 -1.4,3.6 -1.1,3.3 -2.2,6.6 -3.2,9.9 -0.6,1.9 -1.3,3.8 -1.7,5.7 -0.2,0.5 -0.4,1 -0.7,1.5 -0.2,0.3 -0.6,0.3 -0.8,0 -0.3,-0.4 -0.4,-0.8 -0.6,-1.2 -0.3,-0.9 -0.7,-1.9 -1.1,-2.8 0,-0.2 -0.1,-0.4 -0.2,-0.6 -0.6,-1.9 -1.2,-3.8 -1.8,-5.8 -0.4,-1.2 -0.9,-2.3 -1.4,-3.5 -0.3,-0.8 -0.7,-1.7 -1,-2.5 -0.4,-0.9 -0.7,-1.8 -1.1,-2.7 -0.4,-0.8 -0.8,-1.7 -1.1,-2.5 -0.4,-0.9 -0.9,-1.7 -0.9,-2.6 -0.6,-0.9 -0.7,-1.9 -1.2,-2.8 -0.3,-0.7 -0.8,-1.4 -0.8,-2.2 0,-0.1 -0.3,-0.2 -0.4,-0.2 -0.2,0 -0.3,0 -0.5,0.1 -0.4,0.2 -0.7000001,0.4 -1.1000001,0.5 -1.2,0.4 -2.3,1.1 -3.1,2.1 -1.2,0 -1.2,0 -2,0.4 -0.9,0.5 -1.8,0.9 -2.7,1.4 -0.2,0.1 -0.5,0.2 -0.70000003,0.5 0,0.4 0.1,0.9 0.1,1.3 -0.1,0.5 0.20000003,1 0.20000003,1.5 0,1.4 0.5,2.7 0.9,4 0.3,0.9 0.6,1.7 0.9,2.6 0.2,0.8 0.6,1.7 1,2.5 0.5,1.2 1.1,2.5 1.6,3.7 0.9,2 1.7,3.9 2.3,5.9 0.6,1.8 1.1,3.6 1.8,5.3 0.5000001,1.3 0.9000001,2.5 1.1000001,3.8 0.1,0.5 0.2,1.1 0.4,1.5 0.6,1.30001 0.7,2.500012 0.2,3.800012 -0.1,0.2 -0.2,0.5 -0.1,0.8 0.1,0.4 0.5,0.5 0.8,0.6 0.1,0 0.2,0.1 0.3,0.2 l 0,0 c 0,0.1 -0.1,0.1 -0.1,0.1 -0.1,0 -0.2,0 -0.3,0 -0.1,0 -0.2,-0.1 -0.3,-0.1 -0.5,-0.1 -0.8,0 -1,0.4 -0.7000001,1.4 -1.3000001,2.9 -2.0000001,4.3 -0.1,0.2 0,0.5 0.2,0.6 0.2,0.1 0.4,0.2 0.6,0.2 1.7000001,0.3 3.4000001,0.9 4.9000001,1.8 0.3,0.2 0.6,0.2 0.8,0.4 0.3,0.2 0.7,0.3 1,0.8 0.4,1.8 1.2,3.6 1.8,5.5 0.4,1.1 0.8,2.1 1.2,3.2 0.2,0.4 0.1,0.9 0.4,1.3 0.8,2.2 1.5,4.4 2.5,6.5 0.1,0.2 0.1,0.3 0.2,0.5 0.7,1.9 1.3,3.8 1.8,5.7 0.1,0.4 0.2,0.7 0.3,1 0.7,1.4 1.2,2.8 1.7,4.3 0.7,2.2 1.4,4.5 2.1,6.8 0,0.2 0.1,0.4 0.2,0.6 0.1,0.1 0.4,0.3 0.6,0.3 1,-0.3 2.1,-0.3 3.2,-0.4 0.2,0 0.3,-0.1 0.5,-0.1 1.6,-0.6 3.2,-1.1 4.8,-1.6 0.6,-0.3 1.3,-0.5 1.6,-1.2 0.1,-0.1 0.3,-0.2 0.4,-0.3 0.3,-0.2 0.3,-0.6 0.3,-0.9 0,-0.3 -0.1,-0.7 -0.2,-1 -0.2,-0.6 -0.4,-1.2 -0.6,-1.8 -0.5,-2.1 -1.3,-4 -2,-6 -0.3,-0.8 -0.6,-1.5 -0.7,-2.4 0,-0.3 -0.2,-0.5 -0.3,-0.8 -0.3,-1.1 -0.7,-2.1 -1,-3.1 -0.9,-2.9 -1.8,-5.7 -3,-8.5 -0.4,-1.1 -0.7,-2.2 -1,-3.4 -0.2,-0.4 -0.2,-0.9 0,-1.3 0.2,-0.3 0.4,-0.5 0.8,-0.5 1.1,0.1 2.3,0.2 3.5,0.4 1.3,0.1 2.6,0.4 4,0.5 0.7,0 1.5,0.1 2.2,0.2 1.5,0.1 2.9,0.3 4.4,0.4 2.3,0.2 4.6,0.4 6.9,0.6 1.6,0.2 3.2,0.3 4.8,0.4 l 0,0 c 0.2,0 0.4,0.1 0.6,0.1 0.1,-0.1 0.2,-0.1 0.3,0 1.6,0.1 3.3,0.2 4.9,0.5 0.4,0.1 0.8,0.2 1.2,0.2 1.3,0.1 2.6,0.2 3.9,0.3 1,0.1 1.9,0 2.9,-0.1 0.3,0 0.6,-0.3 0.8,-0.7 0.2,-0.4 0.2,-1 0.1,-1.4 z"
       id="k"
       inkscape:connector-curvature="0"
       inkscape:label="k" />
    <path
       style="fill:#000000;fill-opacity:1;fill-rule:evenodd;stroke:#ffffff;stroke-width:1px;stroke-linecap:butt;stroke-linejoin:miter;stroke-opacity:0"
       d="m 63.380784,119.47648 c 0.2,0.7 0.3,1.4 -0.1,2.1 -0.1,0.2 -0.1,0.5 0.1,0.8 0.1,0.3 0.3,0.6 0.5,0.9 0.8,0.9 1.2,2 1.4,3.2 0.2,0.8 0.6,1.5 1.5,1.7 0.3,0.1 0.6,0.3 0.8,0.6 0.5,0.8 1.1,1.5 1.7,2.3 0.2,0.4 0.6,0.5 1,0.5 0.2,0 0.4,0 0.5,-0.1 0.2,-0.2 0.4,-0.4 0.6,-0.6 0.9,-1.1 1.8,-2 2.8,-2.8 1.6,-1.4 3.1,-2.7 4.7,-4 0.9,-0.7 1.8,-1.5 2.7,-2.3 2.6,-2.2 5.3,-4.4 8,-6.4 1,-0.8 2.1,-1.6 3,-2.5 0.4,-0.4 0.9,-0.7 1.4,-1 0.9,-0.5 1.7,-1.3 2.6,-1.8 2.6,-2 5.299996,-4 8.199996,-5.7 0.9,-0.6 1.8,-1.1 2.9,-1.3 0.3,0 0.5,-0.3 0.7,-0.5 0.2,-0.3 0.3,-0.7 0.2,-1.1 -0.2,-0.7 -0.4,-1.4 -0.4,-2.100002 -0.5,-1.00001 -1,-2.00001 -1.6,-3.00001 -0.3,-0.4 -0.5,-0.8 -0.6,-1.2 -0.3,-1 -0.8,-1.8 -1.5,-2.6 -0.4,-0.4 -0.9,-0.7 -1.5,-0.7 -0.4,0 -0.8,0 -1.2,0 -0.3,0.4 -0.6,0.7 -1,1 -0.4,0.3 -0.799996,0.5 -1.199996,0.7 -1.4,0.9 -2.7,1.8 -4.1,2.7 -2.1,1.4 -4.1,2.90001 -6.1,4.400012 -2.9,2.1 -5.6,4.2 -8.4,6.4 -1.4,1 -2.7,2.1 -4,3.2 -0.7,0.6 -1.4,1.1 -2.1,1.7 -0.2,0.1 -0.4,0.2 -0.6,0.3 -0.2,0 -0.5,-0.1 -0.6,-0.3 -0.1,-0.6 -0.3,-1.1 -0.4,-1.7 -0.5,-2.4 -0.9,-4.8 -1.4,-7.2 -0.3,-1.3 -0.5,-2.7 -0.7,-4.000002 0,-0.3 -0.1,-0.5 -0.1,-0.70001 -0.7,-3.1 -0.9,-6.3 -1.5,-9.4 -0.3,-1.8 -0.6,-3.6 -0.9,-5.4 -0.3,-1.7 -0.7,-3.3 -1,-5 -0.3,-1.6 -0.6,-3.3 -0.7,-4.9 -0.1,-2.1 -0.4,-4.2 -0.4,-6.3 0,-0.3 0,-0.7 -0.1,-1 -0.4,-1.8 -0.8,-3.5 -1.2,-5.3 -0.4,-1.3 -0.6,-2.7 -0.8,-4 -0.2,-1.5 -0.4,-3.1 -0.4,-4.7 0.1,-0.6 0,-1.3 -0.1,-2 -0.1,-0.7 -0.2,-1.3 -0.2,-1.9 -0.1,-1.5 -0.2,-3.10001 -0.4,-4.70001 -0.1,-0.7 -0.1,-1.5 0,-2.2 0.1,-0.6 0,-1.1 0,-1.7 0,-0.6 -0.2,-1.1 -0.5,-1.6 -0.3,-0.5 -1,-0.7 -1.5,-0.5 -0.1,0 -0.2,0 -0.3,0.1 -1.2,0.6 -2.3,1.2 -3.5,1.8 -0.8,0.4 -1.6,0.8 -2.3,1.4 -0.3,0.2 -0.7,0.4 -1,0.6 -0.5,0.3 -1,0.5 -1.5,0.8 -1.5,0.8 -1.3,1.1 -0.9,2.3 0.4,0.9 0.4,1.90001 0.6,2.80001 -0.1,2 0.2,3.9 0.4,5.9 0.2,2.5 0.4,5 0.6,7.5 0.1,1.6 0.3,3.2 0.7,4.7 0.3,1.3 0.7,2.5 1,3.8 0.1,0.4 0.2,0.9 0.3,1.3 0.3,2.1 0.6,4.2 0.7,6.3 0.1,1.6 0.3,3.3 0.5,4.9 0.1,0.9 0.3,1.8 0.5,2.7 0.4,1.5 0.7,3 1,4.5 0.5,2.9 1,5.8 1.5,8.7 0.3,1.50001 0.5,3.000012 0.7,4.500012 0,0.5 0.1,1 0.2,1.5 l 2.8,15.6 z"
       id="l"
       inkscape:connector-curvature="0"
       inkscape:label="l" />
    <path
       style="fill:#000000;fill-opacity:1;fill-rule:evenodd;stroke:#ffffff;stroke-width:1px;stroke-linecap:butt;stroke-linejoin:miter;stroke-opacity:0"
       d="m 75.280784,36.476458 c -0.2,-0.5 -0.1,-1 0.1,-1.5 0.1,-0.3 0.3,-0.5 0.5,-0.6 0.2,-0.1 0.3,-0.1 0.5,-0.2 1.2,-0.4 2.3,-0.9 3.3,-1.6 0.6,-0.4 1.3,-0.7 2,-0.9 0.4,-0.1 0.8,-0.2 1.1,-0.3 1.1,-0.2 2.1,-0.6 3.1,-1 0.2,-0.1 0.6,0.1 0.7,0.3 0.2,0.6 0.4,1.2 0.4,1.8 0,0.6 0,1.1 0.2,1.7 0.1,0.3 0.1,0.6 0.1,0.8 0.3,2.8 0.6,5.6 0.7,8.5 0,1.2 0.1,2.5 0.4,3.70001 0.2,0.7 0,1.5 0.1,2.2 0,0.3 0,0.7 0,1 0.2,2.6 0.3,5.2 0.5,7.8 0.3,3 0.5,6 1,9 0.2,1.3 0.4,2.7 0.5,4.1 0,1 0.3,1.9 0.4,2.9 0.1,0.7 0.2,1.4 0.2,2 0.3,3.2 0.7,6.3 1.1,9.5 0.2,1.2 0.5,2.4 0.7,3.7 0.1,0.6 -0.1,1.2 -0.6,1.5 -0.7,0.4 -1.4,0.7 -2.1,1.1 -0.1,0 -0.2,0.1 -0.3,0.1 -1.6,0.5 -3.1,1.3 -4.6,2.1 -0.5,0.3 -1,0.6 -1.5,0.8 -0.4,0.2 -0.9,0.3 -1.3,0.2 -0.4,-0.1 -0.7,-0.3 -0.8,-0.6 -0.3,-0.9 -0.6,-1.8 -0.7,-2.8 -0.2,-1.3 -0.4,-2.6 -0.6,-3.9 -0.1,-0.4 -0.1,-0.8 -0.1,-1.2 -0.1,-1.6 -0.3,-3.3 -0.6,-4.9 0,-0.1 0,-0.2 -0.1,-0.3 -0.1,-2.7 -0.6,-5.3 -0.9,-7.9 -0.2,-2 -0.4,-4 -0.8,-5.9 0,-0.2 -0.1,-0.5 -0.1,-0.7 0,-2 -0.3,-4 -0.6,-5.9 0,-0.3 -0.1,-0.7 -0.1,-1 0,-1.6 -0.1,-3.3 -0.3,-4.9 0,-0.2 0,-0.3 0,-0.5 0.1,-2.1 -0.2,-4.2 -0.4,-6.3 -0.1,-1.9 -0.3,-3.80001 -0.5,-5.80001 -0.1,-0.9 -0.2,-1.8 -0.3,-2.7 -0.1,-0.7 -0.1,-1.5 -0.2,-2.2 0,-0.6 0,-0.9 -0.1,-1.2 z"
       id="path41338"
       inkscape:connector-curvature="0" />
    <path
       style="fill:#000000;fill-opacity:1;fill-rule:evenodd;stroke:#ffffff;stroke-width:1px;stroke-linecap:butt;stroke-linejoin:miter;stroke-opacity:0"
       d="m 147.58078,73.876468 c -0.4,-0.6 -0.8,-1.2 -1,-1.9 -0.1,-0.4 -0.1,-0.9 -0.2,-1.3 -0.2,-0.5 -0.5,-0.9 -0.6,-1.4 -0.2,-0.8 -0.6,-1.5 -1,-2.2 -0.2,-0.3 -0.4,-0.5 -0.7,-0.8 -0.3,-0.2 -0.7,-0.2 -0.9,0 -0.2,0.2 -0.4,0.4 -0.5,0.7 -0.5,0.8 -1.2,1.3 -2,1.8 -1,0.5 -2,1 -3,1.5 -1.7,0.8 -3.3,1.7 -5,2.5 -1.4,0.7 -2.9,1.4 -4.3,2 -1.5,0.7 -3,1.2 -4.6,1.8 -1.4,0.6 -2.9,0.9 -4.4,1.3 -0.9,0.3 -1.9,0.5 -2.8,0.6 -0.3,0.1 -0.6,-0.1 -0.7,-0.3 -0.2,-0.5 -0.4,-0.9 -0.6,-1.4 -0.4,-1.3 -0.8,-2.6 -1.2,-3.9 -0.2,-0.8 -0.4,-1.6 -0.7,-2.5 -0.1,-0.4 0,-0.7 0.4,-0.9 0.6,-0.3 1.2,-0.7 1.8,-1 0.8,-0.4 1.6,-0.6 2.4,-1 3.4,-1.5 6.8,-2.8 10.3,-4 3.3,-1.1 6.8,-2 10.2,-2.5 0.8,-0.1 1.6,-0.2 2.4,0 0.8,0.2 1.2,0 1.5,-0.8 0.2,-0.5 0.3,-1.1 0.1,-1.7 -0.1,-0.6 -0.2,-1.1 -0.4,-1.6 -0.2,-0.5 -0.4,-1.1 -0.6,-1.6 -0.4,-0.9 -0.7,-1.8 -0.7,-2.8 0,-0.8 -0.3,-1.5 -0.6,-2.3 -0.2,-0.5 -0.5,-0.9 -0.9,-1.2 -0.4,-0.4 -0.9,-0.7 -1.4,-1 -0.2,-0.1 -0.5,-0.1 -0.6,0.1 -0.1,0.1 -0.2,0.2 -0.2,0.3 -0.1,0.3 -0.3,0.5 -0.6,0.5 -0.4,0.1 -0.8,0.2 -1.2,0.2 -3.6,0.6 -7.2,1.6 -10.7,2.8 -3.9,1.3 -7.8,2.7 -11.7,4.3 -0.6,0.2 -1.2,0.4 -1.8,0.6 -0.5,0.2 -0.8,0 -1,-0.6 -0.1,-0.3 -0.1,-0.6 -0.1,-0.8 -0.2,-1.5 -0.4,-2.9 -0.5,-4.4 -0.1,-0.7 -0.1,-1.5 -0.2,-2.2 0,-1 0,-1.9 -0.1,-2.90001 -0.1,-0.9 -0.1,-1.8 0,-2.7 0.3,-0.5 0.7,-0.7 1.1,-0.9 2.7,-1.3 5.5,-2.5 8.3,-3.5 2.3,-0.8 4.5,-1.6 6.7,-2.3 1.6,-0.5 3.1,-1 4.7,-1.5 2.7,-0.8 5.3,-1.5 8,-2.3 0.9,-0.2 1.8,-0.5 2.6,-0.6 0.8,-0.2 0.9,0 1.2,0.6 0.1,0.3 0.3,0.5 0.4,0.7 0.1,0.2 0.4,0.3 0.6,0.2 0.7,-0.2 1.1,-0.5 1.2,-1.2 0,-0.2 0.2,-0.5 0.1,-0.7 -0.2,-0.6 0,-1.1 -0.1,-1.7 -0.1,-1.2 -0.3,-2.4 -1,-3.4 -0.3,-0.4 -0.4,-0.8 -0.4,-1.3 0,-0.6 -0.1,-1.1 0,-1.7 0.2,-1.2 -0.1,-2.3 -0.7,-3.3 -0.4,-0.6 -1.1,-1.2 -2,-0.8 -0.7,0.2 -1.4,0.5 -2.1,0.7 -5.5,1.4 -10.9,3 -16.3,4.7 -3.5,1.1 -7,2.4 -10.4,3.7 -0.9,0.4 -1.9,0.7 -2.8,0.9 -0.7,-0.2 -1.4,-0.5 -2,-0.7 -0.4,-0.2 -0.9,-0.3 -1.3,-0.5 -0.4,-0.2 -0.8,-0.3 -1.3,-0.4 -0.4,0 -0.8,-0.1 -1.2,-0.2 -1,-0.2 -2,-0.2 -3.099996,-0.2 -0.5,0 -0.9,0.1 -1.3,0.3 -0.4,0.2 -0.7,0.4 -0.7,0.8 -0.3,1.7 -0.6,3.3 -0.7,5.1 0,0.3 -0.1,0.6 -0.1,0.8 -1,0.4 -1.9,0.7 -3,0.9 -0.7,0.1 -1.5,0.2 -2.2,-0.2 0,0 -0.1,0 -0.2,-0.1 -0.4,-0.1 -0.9,0.4 -0.9,0.8 0,0.2 0,0.5 0.1,0.7 0.4,1.2 0.7,2.4 1,3.6 0.1,0.3 0.3,0.5 0.6,0.5 0.1,0 0.2,0.1 0.3,0.2 -0.3,1 -0.3,1 0,1.9 0.3,0.7 0.5,1.5 0.7,2.3 0.2,0.5 0.3,1.1 0.5,1.60001 0.3,0.3 0.7,0.3 1,0.3 0.6,0 1.2,0 1.9,0 0.2,0 0.3,0.1 0.4,0.3 0,0.1 0.1,0.2 0.1,0.3 0.2,2.6 0.6,5.2 1,7.8 0.2,1.4 0.6,2.8 0.9,4.2 0.2,0.9 0.2,1 -0.6,1.6 -0.5,0.4 -1.1,0.6 -1.7,0.7 -0.3,0.1 -0.6,0.1 -0.8,0.2 -0.3,0.1 -0.6,0.4 -0.6,0.8 0,0.3 0,0.7 0.1,1 0.3,0.9 0.6,1.8 0.8,2.8 0.3,1.1 0.7,2.3 1.3,3.3 0.2,0.3 0.3,0.7 0.5,1.1 0.3,0.8 0.7,1.6 1,2.4 0.2,0.4 0.5,0.6 0.9,0.6 0.799996,0 1.599996,-0.1 2.399996,-0.2 0.4,-0.1 0.8,-0.2 1.2,-0.2 0.4,0 0.6,0.1 0.8,0.5 1.2,2 2.2,4.2 3.6,6.1 0,0 0,0.1 0.1,0.2 0.1,0.3 0,0.6 -0.2,0.7 -0.8,0.2 -1.5,0.4 -2.3,0.5 -0.7,0.2 -1.3,0.2 -2,0 -0.6,-0.2 -1.2,0.1 -1.7,0.5 -0.2,0.1 -0.3,0.4 -0.3,0.6 0,0.7 0.2,1.5 0.6,2.1 0.5,0.8 0.8,1.7 1.2,2.6 0.2,0.5 0.4,1.1 0.7,1.6 0.5,1 1.1,2 1.4,3.1 0.1,0.3 0.3,0.6 0.5,0.9 0.2,0.3 0.5,0.5 0.8,0.5 1.1,0.2 2.3,0 3.4,-0.3 1.6,-0.4 3.2,-0.8 4.7,-1.4 1,-0.3 1.9,-0.7 3,-0.5 0.4,0.1 0.8,0 1.2,0 0.6,0 1.2,0 1.9,0.1 0.7,0.1 1,-0.4 0.8,-0.9 0,-0.1 0,-0.1 -0.1,-0.2 -0.1,-0.3 0,-0.6 0.3,-0.7 1,-0.3 2,-0.6 2.9,-0.9 2.1,-0.6 4.2,-1.4 6.2,-2.2 2,-0.9 4,-1.8 6,-2.9 0.8,-0.4 1.6,-0.8 2.4,-1.2 1.7,-0.8 3.5,-1.7 5.2,-2.5 0.5,-0.2 1,-0.5 1.6,-0.6 0.4,-0.1 2.1,-0.6 2.2,-1 0.4,-0.8 -0.2,-4.5 -0.2,-4.5 -0.2,0 -0.3,0 -0.4,0 z m -50.899996,-32.50001 -0.1,0.2 c -0.7,0.3 -1.4,0.4 -2.1,0.4 -0.2,0 -0.4,-0.1 -0.5,-0.4 l 0.1,-0.1 c 0.7,-0.1 1.3,-0.3 2,-0.4 0.1,0 0.2,0 0.3,0 0.2,0 0.4,0.1 0.3,0.3 z"
       id="path41384"
       inkscape:connector-curvature="0" />
    <path
       style="fill:#000000;fill-opacity:1;fill-rule:evenodd;stroke:#ffffff;stroke-width:1px;stroke-linecap:butt;stroke-linejoin:miter;stroke-opacity:0"
       d="m 200.58078,77.376468 c -0.1,-0.1 -0.2,-0.1 -0.2,-0.2 -0.3,-0.7 -0.4,-1.5 -0.5,-2.3 -0.5,-2.3 -1.1,-4.6 -1.6,-7 -0.4,-1.8 -0.7,-3.7 -1.1,-5.5 -0.4,-2.1 -0.7,-4.2 -1,-6.4 -0.1,-1.1 -0.3,-2.1 -0.5,-3.2 -0.2,-1.6 -0.5,-3.2 -0.7,-4.9 -0.2,-2.50001 -0.6,-4.90001 -1,-7.40001 -0.4,-2.8 -0.7,-5.5 -0.9,-8.3 -0.1,-1.6 -0.3,-3.3 -0.5,-4.9 -0.2,-1.7 -0.4,-3.5 -0.6,-5.2 0,-0.3 -0.1,-0.7 -0.1,-1 -0.5,-2.6 -0.7,-5.2 -1.2,-7.7 -0.4,-2.3 -0.6,-4.6000002 -1,-6.9000002 -0.1,-0.3 0,-0.6 0,-0.8 -0.7,-0.3 -0.7,-0.3 -1,-0.3 -0.7,0.1 -1.4,0.3 -2,0.6 -1.1,0.6 -2.3,0.9 -3.4,1.5 -0.2,0.1 -0.5,0.2 -0.8,0.3 -0.8,0.2 -1.6,0.3 -2.3,0.4 -0.8,0.2 -1.7,0.4 -2.5,0.5 -0.2,0 -0.4,0.3 -0.4,0.5 0.1,1.4000002 -0.1,2.7000002 -0.3,4.1000002 -0.4,2.1 -0.6,4.2 -0.9,6.2 -0.2,1.7 -0.2,3.4 -0.6,5.1 -0.2,0.9 -0.3,1.8 -0.4,2.7 -0.3,2.2 -0.6,4.5 -0.9,6.7 -0.5,3.4 -1,6.8 -1.6,10.3 -0.3,1.7 -0.6,3.50001 -1,5.20001 -0.2,0.9 -0.5,1.8 -0.7,2.8 0,0.3 -0.2,0.5 -0.4,0.7 -0.3,-0.2 -0.3,-0.6 -0.4,-0.9 -0.4,-1.8 -0.8,-3.7 -1.2,-5.5 -0.2,-0.90001 -0.4,-1.90001 -0.6,-2.80001 -0.3,-1.7 -0.6,-3.5 -1,-5.2 -0.3,-1.4 -0.6,-2.8 -0.8,-4.2 -0.2,-0.9 -0.3,-1.8 -0.5,-2.7 -0.6,-2.5 -1.2,-5.1 -1.8,-7.6 -0.4,-1.8 -0.8,-3.7 -1.2,-5.5 -0.2,-0.8 -0.2,-1.6 -0.1,-2.4 0.1,-0.4 0.1,-0.9 0.1,-1.4 0,-0.5 -0.1,-1 0,-1.5 0.1,-0.4 -0.1,-0.7 -0.3,-1 -0.1,-0.2 -0.3,-0.3 -0.5,-0.4 -1,0 -2,0 -3,0.3 -1.1,0.3 -2.2,0.7 -3.3,0.8 -0.2,0 -0.3,0.1 -0.5,0.2 -0.3,0.2 -0.6,0.3 -1,0.3 -0.4,0.1 -0.8,0.2 -1.1,0.4 -0.4,0.1 -0.7,0.3 -1.1,0.4 -0.4,0.1 -0.7,0.2 -1.1,0.4 -0.1,0 -0.1,0.1 -0.2,0.1 -0.3,0.6 -0.4,1.3 -0.9,1.8 -0.3,0.2 -0.3,0.6 -0.2,1 0,0.2 0.1,0.4 0.2,0.7 0.3,0.6 0.3,1.2 0.1,1.8 -0.1,0.6 -0.1,1.1 -0.1,1.7 0,1.4 -0.1,2.8 -0.1,4.3 0,0.8 -0.2,1.7 -0.3,2.5 -0.1,1.2 -0.1,2.4 -0.3,3.6 -0.1,0.4 -0.1,0.8 -0.1,1.2 0,0.7 0,1.5 -0.1,2.2 0,0.2 0,0.5 0,0.7 0,1.4 0,2.8 0,4.3 0,1.5 0,2.9 -0.1,4.4 -0.1,1.1 -0.1,2.30001 -0.1,3.40001 0,2.7 0,5.3 -0.1,8 -0.1,2.3 -0.2,4.5 -0.3,6.8 0,0.8 -0.1,1.6 -0.2,2.4 -0.1,0.9 -0.1,1.8 -0.1,2.7 0,1.9 -0.1,3.7 -0.2,5.6 l -0.4,5.4 c 0,0.6 -0.1,1.1 -0.1,1.7 -0.2,2.2 0,4.4 -0.4,6.6 -0.1,1.7 -0.4,3.4 -0.4,5.1 0,1.2 0,2.5 -0.6,3.7 0,0.1 0,0.2 -0.1,0.3 0,0.7 0.3,1.4 1.1,1.5 0.3,0.1 0.7,0.1 1,0 0.8,-0.2 1.6,-0.4 2.5,-0.6 0.7,-0.2 1.4,-0.2 2,-0.5 1.2,-0.5 2.4,-0.8 3.6,-1.1 0.4,-0.1 0.9,-0.3 1.3,-0.5 0.6,-0.3 0.8,-0.7 0.9,-1.4 0,-0.9 0.1,-1.8 0.3,-2.7 0.1,-0.3 0,-0.6 0.1,-0.8 0.1,-1.7 0.3,-3.4 0.4,-5.1 0.1,-0.8 0.2,-1.6 0.2,-2.4 0,-0.6 0,-1.1 0.1,-1.7 0.1,-1 0.2,-2 0.2,-3.1 0,-0.5 0,-0.9 0.1,-1.4 0.2,-1.4 0.2,-2.7 0.3,-4.1 0.1,-2.3 0.2,-4.5 0.3,-6.8 0,-0.2 0.1,-0.3 0.1,-0.5 l 0.1,-0.1 c 0.1,0 0.1,0 0.1,0.1 0.1,0.5 0.3,1 0.4,1.5 0.9,2.9 1.8,5.9 2.7,8.8 0.1,0.3 0.2,0.5 0.3,0.8 0.1,0.4 0.2,0.9 0.1,1.3 -0.2,0.9 -0.3,1.8 -0.5,2.7 0,0.2 -0.2,0.4 -0.2,0.6 -0.2,1.5 -0.6,3 -0.9,4.5 -0.1,0.3 -0.1,0.7 -0.2,1 -0.1,0.8 0.7,1.5 1.4,1.3 0.3,-0.1 0.6,-0.1 0.8,-0.2 0.8,-0.3 1.6,-0.2 2.4,-0.3 0.3,0 0.7,0.2 0.8,0.5 0.1,0.2 0.1,0.4 0.2,0.6 0.2,0.6 0.4,1.3 0.6,1.9 0.1,0.2 0.1,0.3 0.2,0.5 0.2,0.5 0.8,0.7 1.3,0.6 0.9,-0.3 1.8,-0.8 2.5,-1.3 0.6,-0.4 1.1,-0.8 1.8,-0.9 0.3,0 0.5,-0.2 0.7,-0.4 0.2,-0.1 0.4,-0.2 0.6,-0.3 0.7,-0.1 1.4,-0.3 2.2,-0.4 1,-0.1 1.7,-0.7 2.3,-1.3 0.1,-0.1 0.2,-0.4 0.2,-0.6 0,-0.2 -0.1,-0.3 -0.1,-0.5 -0.3,-0.6 -0.6,-1.1 -0.8,-1.7 -0.3,-0.7 -0.5,-1.5 -0.7,-2.3 -0.5,-2 -1.2,-4 -1.9,-6 -0.6,-1.9 -0.6,-1.9 -0.2,-3.8 1.1,-4.8 2.5,-9.5 3.8,-14.3 0.4,-1.3 0.7,-2.6 1,-3.9 0.3,-1.3 0.6,-2.5 1,-3.8 0.1,-0.2 0.2,-0.4 0.3,-0.6 0,-0.1 0.2,-0.1 0.3,-0.1 0.1,0.3 0.1,0.6 0.2,0.8 0.1,0.8 0.2,1.6 0.3,2.4 0.2,1.2 0.4,2.5 0.5,3.7 0.1,1.1 0.2,2.1 0.4,3.2 0.2,1.3 0.4,2.6 0.6,3.9 0.4,2.5 0.8,4.9 1.3,7.4 0.6,2.8 1.3,5.5 1.9,8.3 0.5,2.3 1,4.7 1.5,7 0.1,0.6 0.3,1.2 0.4,1.8 0.1,0.5 0.6,0.9 1.1,0.8 0.5,0 1,-0.2 1.5,-0.4 0.5,-0.3 1,-0.5 1.4,-0.9 0.5,-0.5 1.2,-0.7 1.8,-0.9 0.7,-0.2 1.3,-0.4 2,-0.5 0.4,-0.1 0.8,-0.1 1.1,-0.4 0.3,-0.2 0.7,-0.4 1.1,-0.5 0.3,-0.1 0.5,-0.2 0.8,-0.3 0.4,-0.2 0.6,-0.5 0.7,-0.9 0.1,-0.3 0.1,-0.7 0.1,-1 0.1,-1.4 -1.2,-5.5 -1.2,-5.5 z"
       id="path4140"
       inkscape:connector-curvature="0" />
    <path
       style="fill:#000000;fill-opacity:1;fill-rule:evenodd;stroke:#ffffff;stroke-width:1px;stroke-linecap:butt;stroke-linejoin:miter;stroke-opacity:0"
       d="m 239.48078,78.776468 c -0.8,-3.4 -1.8,-6.8 -2.4,-10.3 -0.4,-2.2 -0.8,-4.3 -1.2,-6.5 -0.6,-3.4 -1.1,-6.7 -1.7,-10.1 -0.1,-0.8 -0.3,-1.6 -0.3,-2.4 -0.3,-2.7 -0.8,-5.30001 -1.2,-7.90001 -0.6,-3.6 -1.5,-7.1 -2.1,-10.7 -0.3,-1.8 -0.7,-3.6 -1,-5.4 -0.1,-0.9 -0.2,-1.8 -0.3,-2.7 -0.2,-1.7 -0.4,-3.4 -0.6,-5.1 -0.3,-2.2 -0.5,-4.4 -0.9,-6.6 -0.3,-1.7000002 -0.6,-3.4000002 -1,-5.0000002 0,-0.2 -0.1,-0.3 -0.1,-0.5 0,-0.8 -0.2,-1.4 -0.5,-2.1 -0.1,-0.4 -0.3,-0.7 -0.3,-1.1 0,-0.2 -0.1,-0.3 -0.1,-0.5 0,0 -0.1,0 -0.2,0 -0.1,0 -0.1,0.1 -0.1,0.1 0,0.4 0.3,0.8 0.1,1.3 0,0.1 -0.2,0.3 -0.4,0.2 -0.2,-0.1 -0.3,-0.2 -0.5,-0.2 -0.3,-0.1 -0.4,-0.3 -0.5,-0.6 0,-0.3 -0.3,-0.4 -0.5,-0.4 -0.8,0.3 -1.5,0.4 -2.3,0.4 -0.1,0 -0.1,0 -0.2,0 -0.2,0 -0.4,0.4 -0.4,0.5 0.2,0.7 0.2,1.5 0.2,2.2 0,0.3 0,0.7 0.1,1 0.3,0.9 0.2,1.8 0.2,2.7 0,0.1 -0.1,0.2 -0.2,0.2 -0.1,0 -0.2,0 -0.3,-0.1 -0.2,-0.5 -0.4,-0.9 -0.4,-1.5 -0.1,-0.8 -0.2,-1.6 -0.2,-2.4 0,-0.8 -0.2,-1.6 -0.2,-2.3 0,-0.9 -0.6,-1.2 -1.4,-1.1 -0.2,0 -0.3,0 -0.5,0.1 -0.4,0.1 -0.9,0.2 -1.3,0.3 -1.2,0.2 -2.3,0.4 -3.5,0.6 -1.2,0.1 -2.3,0.5 -3.5,0.7 -1.7,0.4 -1.7,0.4 -2,2.2 0,0.1 0,0.2 0,0.3 0.1,1.4 -0.4,2.8 -0.3,4.2000002 -0.3,1.8 -0.3,3.6 -0.5,5.4 -0.2,2 -0.2,4.1 -0.5,6.1 -0.1,2.9 -0.5,5.8 -0.9,8.6 -0.4,2.6 -0.6,5.3 -0.8,8 -0.3,3.1 -0.5,6.2 -0.8,9.30001 0,0.2 -0.1,0.5 -0.1,0.7 -0.3,2.3 -0.7,4.6 -1,6.9 -0.1,0.4 -0.2,0.9 -0.2,1.3 -0.2,2.3 -0.6,4.6 -0.7,6.9 0,0.8 -0.2,1.6 -0.3,2.4 0,0.3 -0.2,0.5 -0.5,0.7 -0.6,0.3 -0.7,0.7 -0.6,1.3 0.2,0.6 0.4,1.2 0.4,1.8 0,0.3 0,0.7 0.1,1 0.3,1.1 0.2,2.2 0.1,3.2 -0.1,1 -0.2,2 -0.3,3 0,0.1 0,0.1 0,0.2 0,0.2 -0.3,0.4 -0.3,0.5 -0.1,0.2 0.7,4.7 1.1,4.8 0.2,0.1 0.2,0.1 0.5,0 0.3,-0.1 0.5,-0.3 0.8,-0.4 1.3,-0.4 2.7,-0.5 3.9,-1 0,0 0.1,0 0.2,0 1.6,-0.1 3.1,-0.8 4.6,-1.2 0.4,-0.1 0.7,-0.3 0.9,-0.7 0.2,-1 0,-2 0.3,-3 1.8,-0.8 3.7,-1.4 5.6,-1.9 0.7,-0.2 1.3,-0.3 2,-0.5 1.4,-0.4 2.8,-0.6 4.2,-0.9 0.1,0 0.2,0 0.3,0 0.2,0 0.3,0.1 0.4,0.3 0.1,0.2 0.2,0.3 0.2,0.5 0.5,2.1 0.9,4.2 1.4,6.3 0.1,0.7 0.3,1.3 0.4,2 0.3,1.3 0.7,2.5 0.8,3.8 0.1,1.1 0.8,1.1 1.4,0.9 0.1,0 0.2,-0.1 0.3,-0.1 0.5,-0.3 1,-0.5 1.6,-0.4 1.7,-0.4 3.4,-0.6 4.8,-1.6 0.2,-0.1 0.4,-0.2 0.6,-0.2 0.8,-0.1 1.5,-0.5 2.3,-0.5 0.5,0 0.9,-0.6 0.8,-1.1 0.2,-1 -0.2,-2.5 -0.5,-3.9 z m -16.4,-17.5 c -0.3,0.1 -0.7,0.2 -1,0.3 -1.1,0.2 -2.2,0.5 -3.3,0.7 -1.4,0.4 -2.8,0.6 -4.1,0.9 -0.3,0.1 -0.5,-0.1 -0.5,-0.5 0,-1 0,-1.9 0.2,-2.9 0.2,-1.2 0.3,-2.4 0.4,-3.5 0.2,-1.4 0.4,-2.8 0.5,-4.2 0.4,-2.8 0.8,-5.6 1.1,-8.40001 0.2,-1.5 0.2,-2.9 0.3,-4.4 0.1,-1.9 0.3,-3.7 0.4,-5.6 0.1,-1.3 0.3,-2.6 0.5,-3.9 0,-0.1 0.1,-0.2 0.2,-0.2 0.1,0 0.2,0.1 0.2,0.2 0.1,0.3 0.2,0.5 0.2,0.8 0.2,0.9 0.4,1.9 0.6,2.8 0.6,3.2 1.3,6.5 1.9,9.7 0.2,0.9 0.3,1.8 0.5,2.7 0.5,3.10001 1.1,6.30001 1.4,9.40001 0,0.3 0.1,0.6 0.1,0.8 0.1,0.5 0.1,1 -0.2,1.5 -0.2,0.2 -0.2,0.6 0,0.8 0.6,0.6 0.8,1.2 0.8,2 0,0.2 0.1,0.4 0.1,0.7 -0.1,0 -0.2,0.2 -0.3,0.3 z"
       id="path4142"
       inkscape:connector-curvature="0" />
    <path
       style="fill:#000000;fill-opacity:1;fill-rule:evenodd;stroke:#ffffff;stroke-width:1px;stroke-linecap:butt;stroke-linejoin:miter;stroke-opacity:0"
       d="m 283.88077,3.4764578 c 0,0.3 0,0.6 0,0.8 -0.4,2.2 -0.2,4.5 -0.4,6.8000002 -0.2,2.8 -0.3,5.7 -0.5,8.5 -0.1,1.4 -0.2,2.8 -0.2,4.2 0,1.9 -0.1,3.9 -0.2,5.8 0,1.8 -0.1,3.6 -0.1,5.4 -0.1,1.8 -0.2,3.5 -0.2,5.3 0,1.5 -0.1,3 -0.1,4.4 0,1.80001 0,3.50001 -0.2,5.30001 -0.1,1 -0.1,1.9 -0.1,2.9 0,1.8 -0.2,3.5 -0.3,5.3 0,0.7 -0.1,1.4 -0.1,2 0,0.3 0,0.6 0,0.9 -0.3,2.1 -0.2,4.2 -0.3,6.3 -0.1,1.3 -0.3,2.6 -0.5,3.9 -0.3,1.5 -0.5,2.9 -0.7,4.4 -0.1,1 -0.3,1.9 -0.5,2.8 -0.1,0.2 -0.2,0.4 -0.4,0.5 -0.3,0.1 -0.6,0.3 -0.9,0.4 -1.89999,0.6 -3.79999,1.2 -5.69999,1.8 -0.2,0.1 -0.4,0.1 -0.6,0.2 -1,0.5 -2.2,0.6 -3.2,1 -0.3,0.1 -0.7,-0.1 -0.8,-0.4 -0.1,-0.2 -0.2,-0.4 -0.2,-0.6 -0.3,-0.8 -0.5,-1.6 -0.7,-2.4 -0.8,-2.6 -1.9,-5.1 -2.8,-7.7 -0.4,-1.2 -0.8,-2.4 -1.2,-3.6 -1.1,-3.4 -2,-6.9 -2.8,-10.3 -0.7,-2.7 -1.5,-5.4 -2.2,-8 -0.5,-2 -1.2,-4.00001 -1.9,-6.00001 0,-0.1 -0.1,-0.2 -0.2,-0.2 -0.1,-0.1 -0.3,0.1 -0.3,0.3 0,0.2 0,0.5 0,0.7 0,0.9 0,1.7 0,2.60001 0,1.6 -0.1,3.3 -0.3,4.9 0,0.4 -0.1,0.8 -0.1,1.2 0,2.3 0,4.5 -0.1,6.8 0,1.7 0,3.4 0.1,5.1 0.1,1.2 0,2.5 0,3.7 0,2.7 -0.1,5.4 -0.1,8.2 0,0.8 -0.4,1.2 -1.1,1.5 -1.1,0.3 -2.2,0.7 -3.2,1 -0.3,0.1 -0.5,0.2 -0.8,0.2 -1.6,0.3 -3.1,0.6 -4.7,1 -0.4,0.1 -0.9,0.2 -1.3,0.2 -0.5,0 -1,-0.4 -1,-0.9 0,-0.5 0,-1 0,-1.5 0,-2.2 0.1,-4.3 0.1,-6.5 0,-0.8 0,-1.7 0,-2.5 -0.1,-2.4 -0.1,-4.8 -0.1,-7.1 0,-1.7 0,-3.4 0,-5.1 0,-0.7 0,-1.4 0.1,-2 0.2,-2.2 0.3,-4.4 0.4,-6.6 0.1,-2.40001 0.3,-4.80001 0.4,-7.10001 0.1,-1.9 0.2,-3.9 0.2,-5.8 0,-2.3 0,-4.5 0.2,-6.8 0.1,-1.6 0.2,-3.2 0,-4.8 0,-0.2 0,-0.5 0,-0.7 0.1,-0.8 0.1,-1.6 0.2,-2.4 0.1,-2.8 0.2,-5.7 0.4,-8.5 0.1,-1 0.2,-1.9 0.3,-2.9000002 0.1,-0.5 0,-1 -0.3,-1.5 -0.1,-0.1 -0.2,-0.3 -0.3,-0.4 -0.2,-0.3 -0.2,-0.5 0.1,-0.7 0.3,-0.2 0.5,-0.5 0.4,-0.9 -0.1,-0.6 -0.2,-1.1 -0.2,-1.7 0,-0.2 0.1,-0.5 0.3,-0.5 1.5,-0.4 2.9,-1 4.4,-1.3 0.3,-0.1 0.6,0.2 0.7,0.6 0.1,0.4 0,0.8 0.2,1.1 0.1,0.1 0.2,0.2 0.3,0.2 0.1,0 0.3,-0.1 0.4,-0.3 0.1,-0.1 0.1,-0.3 0.1,-0.5 0,-0.3 -0.1,-0.6 -0.1,-0.8 0,-0.3 0.2,-0.6 0.4,-0.7 0.1,0 0.1,-0.1 0.2,-0.1 1.1,-0.3 2.3,-0.7 3.4,-0.99999996 0.1,0 0.2,0 0.3,-0.1 0.4,-0.1 0.7,0.1 0.8,0.49999996 0.2,0.7 0.3,1.4 0.4,2.2 0.1,0.4 0.1,0.8 0.1,1.2 0.1,0.9 0.1,1.8 0.8,2.6 0.7,1.6 1.3,3.1000002 1.9,4.7000002 0.6,1.8 1.1,3.6 1.6,5.4 0.5,1.7 1,3.4 1.5,5.1 0.6,1.8 1.1,3.7 1.7,5.5 0.5,1.6 1,3.2 1.6,4.8 1.3,4 2.6,8 3.8,12 0.2,0.7 0.3,1.5 0.6,2.10001 0.1,0.1 0.1,0.2 0.3,0.1 l 0.1,-0.1 c 0,-0.1 0,-0.1 0,-0.2 0.1,-3.50001 0.3,-6.90001 0.4,-10.40001 0,-1 0,-2 0,-3.1 l 0,0 c 0.1,-3.7 0.2,-7.5 0.3,-11.2 0,-0.7 0.1,-1.4 0.1,-2 0.1,-1.2 0.1,-2.5 0.2,-3.7 0,-1 0,-1.9 0.1,-2.9 0.1,-0.4 0,-0.9 0,-1.4 -0.1,-1.5 -0.1,-3.1000002 0,-4.6000002 0,-0.5 0.1,-0.9 0.2,-1.4 0,-0.2 0.2,-0.4 0.5,-0.5 0.2,0 0.3,-0.1 0.5,-0.1 0.3,-0.1 0.7,-0.1 1,-0.3 0.9,-0.4 1.8,-0.6 2.8,-0.7 0.59999,-0.1 1.19999,-0.2 1.79999,-0.5 0.4,-0.2 0.7,-0.3 1.1,-0.4 0.5,-0.1 1.1,-0.2 1.6,-0.5 0.7,-0.3 1.5,-0.3 2.3,-0.3 -0.1,0 0.3,0.4 0.3,0.8 z"
       id="path4144"
       inkscape:connector-curvature="0" />
    <path
       style="fill:#000000;fill-opacity:1;fill-rule:evenodd;stroke:#ffffff;stroke-width:1px;stroke-linecap:butt;stroke-linejoin:miter;stroke-opacity:0"
       d="m 321.08077,74.976468 c -0.1,0.7 -0.3,1.4 -0.4,2.2 -0.1,0.5 -0.4,0.8 -0.9,1 -0.1,0 -0.1,0 -0.2,0 -1.4,0.4 -2.6,1 -4,1.5 -1.7,0.6 -3.4,1.2 -5.1,1.8 -0.1,0 -0.2,0.1 -0.3,0.1 -0.5,0.1 -1.1,-0.1 -1.3,-0.6 -0.1,-0.3 -0.2,-0.5 -0.3,-0.8 -0.4,-1.5 -1,-2.9 -1.4,-4.4 -0.9,-2.7 -2,-5.3 -2.8,-8 -0.4,-1.2 -0.7,-2.4 -1,-3.6 -0.8,-3.1 -1.7,-6.1 -2.5,-9.2 -0.5,-2 -1,-4.1 -1.8,-6 l -0.1,-0.1 c -0.1,0 -0.2,0.1 -0.3,0.1 -0.1,0.1 -0.1,0.2 -0.1,0.3 -0.1,2 -0.2,4 -0.4,5.9 -0.1,1 -0.1,1.9 -0.2,2.9 -0.2,3.3 -0.4,6.7 -0.5,10 0,2.1 -0.2,4.2 -0.2,6.3 0,0.6 0,1.1 0,1.7 0,0.2 0,0.5 0,0.7 0,0.4 -0.2,0.7 -0.5,0.8 -0.6,0.3 -1.1,0.5 -1.7,0.7 -0.7,0.1 -1.3,0.4 -2,0.6 -1.4,0.4 -2.7,0.8 -4.1,0.9 -0.3,0 -0.7,0.1 -1,0.2 -0.6,0.2 -1.1,0.2 -1.7,0.2 -0.8,0 -1.4,-0.7 -1.3,-1.5 0.4,-3 0.5,-6.1 0.6,-9.2 0.1,-1.9 0.1,-3.7 0.2,-5.6 0,-0.6 0.1,-1.1 0.1,-1.7 0,-1.5 0.1,-3.1 0.3,-4.6 0,-0.3 0.1,-0.6 0.1,-0.8 0.2,-3.1 0.3,-6.2 0.5,-9.3 0.1,-1.90001 0.3,-3.80001 0.5,-5.80001 0.2,-2.1 0.4,-4.3 0.7,-6.4 0.1,-0.8 0.2,-1.6 0.3,-2.4 0.1,-1 0.2,-1.9 0.3,-2.9 0.1,-1.2 0.3,-2.5 0.4,-3.7 0.2,-2 0.4,-4 0.6,-5.9 0,-0.3 0,-0.6 0.1,-0.8 0,-0.4 0,-0.8 -0.2,-1.2 -0.4,-0.8 -0.9,-1.6 -1.3,-2.4 -0.1,-0.2 -0.3,-0.5 -0.4,-0.7 -0.1,-0.3 0,-0.7 0.3,-0.9 0.6,-0.4 1.1,-0.7 1.7,-1.1 0.4,-0.2 0.6,-0.5 0.7,-0.9 0.1,-0.3 0.3,-0.7 0.3,-1 0,-0.5 0.2,-0.9 0.3,-1.3 0.2,-0.7000002 0.6,-0.9000002 1.2,-1.1000002 0.9,-0.2 1.9,-0.4 2.8,-0.6 0.3,-0.1 0.7,0.2 0.8,0.5 0,0.2 0,0.4 0,0.7 0,0.2 0.2,0.4 0.4,0.5000002 0.3,0 0.6,-0.1000002 0.7,-0.3000002 0.1,-0.2 0.2,-0.4 0.2,-0.6 0,-0.2 0,-0.5 0,-0.7 0,-0.2 0.2,-0.4 0.4,-0.5 0,0 0.1,-0.1 0.2,-0.1 1.2,-0.1 2.4,-0.6 3.6,-0.9 0.1,0 0.2,0 0.3,0 0.1,0 0.2,0.1 0.2,0.2 0.1,0.9 0.3,1.9 0.4,2.9000002 0.1,2 0.2,4 -0.1,5.9 -0.1,0.7 -0.1,1.5 0.1,2.2 0.3,1.2 0.6,2.4 1,3.6 0.3,1.1 0.7,2.3 1,3.4 0.5,1.8 1.1,3.6 1.8,5.3 0.3,0.7 0.5,1.4 0.7,2.1 0.9,3.1 1.8,6.1 2.8,9.1 0.1,0.4 0.3,0.9 0.4,1.3 0.5,1.7 1,3.50001 1.5,5.20001 0.4,1.4 0.8,2.8 1.2,4.2 0.1,0.2 0.1,0.4 0.4,0.5 0.2,-0.3 0.3,-0.6 0.3,-0.9 0.3,-1.8 0.5,-3.6 0.8,-5.4 0.1,-0.90001 0.3,-1.80001 0.4,-2.70001 0.3,-2.3 0.5,-4.5 0.6,-6.8 0.2,-2.2 0.4,-4.4 0.6,-6.6 0.1,-2.3 0.5,-4.5 0.7,-6.8 0.2,-2.2 0.3,-4.4 0.5,-6.6 0.1,-1.4 0.1,-2.7 0.2,-4.1 0,-0.5 0.1,-1 0.2,-1.5 0.3,-1.3 0.5,-2.7000002 0.6,-4.0000002 0.1,-0.6 0.3,-0.8 0.8,-0.9 1.1,-0.2 2.2,-0.6 3.3,-0.9 0.5,-0.2 1.1,-0.4 1.6,-0.4 0.2,0 0.4,-0.1 0.5,-0.2 0.3,-0.3 0.7,-0.4 1.1,-0.5 0.8,-0.2 1.5,-0.5 2.3,-0.7 0.5,-0.1 1,-0.2 1.5,-0.3 0.6,-0.1 1,0.3 1.1,1 0,0.3 0,0.6 -0.1,0.8 -0.6,2.1 -0.7,4.2 -1.1,6.4000002 0,0.2 0,0.3 0,0.5 0,1.4 -0.2,2.8 -0.3,4.2 -0.1,2.3 -0.4,4.6 -0.7,6.9 -0.2,1.4 -0.2,2.8 -0.4,4.2 -0.2,2.8 -0.5,5.5 -0.7,8.3 -0.2,1.8 -0.4,3.5 -0.6,5.2 -0.2,2.1 -0.5,4.2 -0.9,6.20001 -0.4,2.5 -0.7,4.9 -1.1,7.4 -0.1,0.4 -0.1,0.9 -0.2,1.4 -0.4,3.4 -0.7,6.9 -1.2,10.3 -0.1,0.7 -0.3,1.4 -0.5,2.2 -0.2,0.9 -0.5,1.9 -0.8,2.8 -0.2,1.3 -0.4,2.4 -0.5,3.6 z"
       id="path4146"
       inkscape:connector-curvature="0" />
    <path
       style="fill:#000000;fill-opacity:1;fill-rule:evenodd;stroke:#ffffff;stroke-width:1px;stroke-linecap:butt;stroke-linejoin:miter;stroke-opacity:0"
       d="m 358.18077,86.076468 c 0,0 0,-0.1 0,-0.2 0,0 0,0 -0.1,0 0,0 0,0 0.1,0 0.3,-0.4 0.6,-0.8 0.7,-1.3 0.2,-0.8 0.1,-1.4 -0.6,-1.9 -0.5,-0.3 -0.5,-0.5 -0.2,-1 0.5,-1 0.9,-2.1 1.1,-3.2 0.3,-1.8 0.3,-3.6 -0.3,-5.4 -0.2,-0.5 -0.4,-1 -0.7,-1.6 -0.2,-0.4 -0.4,-0.8 -0.4,-1.3 -0.2,-1.6 -0.6,-3.1 -0.8,-4.7 -0.1,-1 -0.4,-2 -0.6,-3 -0.1,-0.5 -0.2,-1 -0.4,-1.5 -0.4,-1.3 -0.7,-2.6 -1.1,-3.9 -0.7,-2.2 -1.3,-4.3 -2,-6.5 -0.5,-1.7 -1,-3.5 -1.5,-5.20001 -0.2,-0.8 -0.4,-1.5 -0.6,-2.3 -0.4,-1.7 -0.9,-3.4 -1.6,-5 -0.5,-1.2 -0.9,-2.5 -1,-3.8 -0.1,-1.3 -0.5,-2.6 -0.7,-3.9 -0.1,-0.6 -0.2,-1.1 -0.3,-1.7 -0.1,-1.1 -0.3,-2.1 0.1,-3.2 0,-0.1 0,-0.2 0,-0.3 -0.1,-0.9 0.3,-1.6 1.1,-2.2 0.6,-0.5 1.2,-1 1.9,-1.4 0.8,-0.5 1.5,-0.5 2.2,0 0.2,0.1 0.5,0.3 0.7,0.5 0.8,0.7 1.6,1.4 2.4,2.2 0.7,0.8 1.3,1.6 1.6,2.6 0.5,1.1 0.7,2.3 0.6,3.5 -0.1,1 -0.3,2 -0.8,3 -0.7,1.6 -1.2,3.2 -1.8,4.8 -0.3,0.8 -0.4,1.5 -0.2,2.3 0.1,0.6 0.4,1 0.9,1.1 0.9,0.2 1.8,0.5 2.8,0.4 1.2,-0.1 2.5,-0.3 3.7,0 0.1,0 0.2,0 0.3,0 0.9,-0.1 1.8,-0.1 2.7,-0.2 0.5,0 0.8,-0.3 1,-0.8 0.4,-1.1 0.8,-2.1 1.1,-3.2 0.4,-1.3 0.9,-2.6 1.4,-3.8 0.4,-1.1 0.8,-2.2 1,-3.4 0.2,-1.1 0.2,-2.3 0.1,-3.4 -0.1,-0.8 -0.3,-1.7 -0.5,-2.5 -0.4,-1.7 -1,-3.4 -1.8,-4.9 -0.3,-0.7 -0.7,-1.3 -1.2,-1.9 -0.8,-1 -1.6,-2 -2.5,-3 -0.5,-0.6 -1.2,-1 -1.8,-1.5 -1,-0.8 -2,-1.5 -2.9,-2.3 -0.4,-0.4 -0.9,-0.7 -1.5,-0.8 -0.5,-0.2 -1.1,-0.4000002 -1.5,-0.7000002 -0.2,-0.1 -0.5,-0.2 -0.8,-0.3 -0.8,-0.3 -1.7,-0.5 -2.6,-0.7 -0.5,-0.1 -1,-0.1 -1.5,0.1 -1.2,0.5 -2.6,0.4 -3.8,0.8 -1,0 -2,0.4 -2.9,0.9000002 -0.5,0.3 -1.1,0.5 -1.7,0.8 -0.5,0.2 -0.9,0.5 -1.3,0.8 -1.6,1.3 -3.2,2.5 -4.5,4.1 -0.1,0.2 -0.3,0.3 -0.5,0.5 -1.2,1 -2.1,2.2 -2.9,3.5 -0.4,0.7 -0.7,1.4 -0.7,2.2 0,0.9 -0.1,1.7 -0.3,2.5 -0.3,1.1 -0.2,2.2 0.1,3.3 0.4,1.2 0.8,2.2 1.7,3.1 0.2,0.3 0.4,0.6 0.4,0.9 0,0.3 0.1,0.6 0.1,0.8 0.2,1.6 0.4,3.3 0.7,4.9 0.3,1.7 0.7,3.4 1.2,5.1 0.6,1.8 1.3,3.50001 1.7,5.30001 0.5,1.9 1.1,3.7 1.7,5.5 0.2,0.5 0.4,1.1 0.5,1.6 0.6,2.1 1.2,4.3 1.8,6.4 0.1,0.3 0.2,0.5 0.3,0.8 0.3,1.1 0.7,2.3 1,3.4 0.2,0.7 0.4,1.4 0.6,2.1 0.3,1.2 0.5,2.4 0.7,3.7 0.1,0.5 0.2,1 -0.1,1.5 -0.2,0.5 -0.1,0.9 0.1,1.3 0.4,0.8 0.5,1.6 0.6,2.5 0,0.4 -0.1,0.6 -0.4,0.8 -0.6,0.5 -0.7,0.8 -0.4,1.5 0,0.1 0,0.1 0.1,0.2 0.4,0.6 0.3,1 -0.1,1.6 -0.2,0.2 -0.3,0.5 -0.4,0.8 -0.3,0.8 -0.8,1.3 -1.6,1.7 -0.5,0.2 -0.9,0.4 -1.4,0.6 -0.9,0.4 -1.8,0.6 -2.8,0.5 -0.6,0 -1.2,0 -1.9,0.1 -0.3,0 -0.7,0 -1,-0.1 -0.3,-0.1 -0.5,-0.2 -0.7,-0.4 -0.1,-0.2 -0.3,-0.4 -0.4,-0.5 -0.7,-0.8 -1,-1.8 -0.9,-2.8 0,-0.7 0.1,-1.4 0.2,-2 0,-0.7 0.1,-1.4 0.3,-2 0.3,-0.8 0.4,-1.7 0.5,-2.5 0.1,-0.8 0.2,-1.7 0.4,-2.5 0,-0.2 0.1,-0.5 0,-0.7 -0.2,-0.7 -0.2,-1.5 -0.2,-2.2 0,-0.4 -0.3,-0.7 -0.6,-0.7 -1.4,-0.1 -2.7,0 -4.1,0.1 -0.3,0 -0.5,0.2 -0.8,0.4 -0.2,0.2 -0.4,0.1 -0.6,0 -0.3,-0.2 -0.7,-0.3 -1.1,-0.3 -1.4,0 -2.7,0 -4.1,0 -0.4,0 -0.7,0.3 -0.7,0.8 0,0.5 -0.1,1 -0.3,1.5 -0.1,0.2 -0.2,0.5 -0.2,0.8 -0.1,0.5 -0.2,1 -0.3,1.5 -0.1,0.9 -0.3,1.8 -0.4,2.7 -0.1,0.7 -0.2,1.5 -0.3,2.2 -0.3,1.8 -0.5,3.6 -0.2,5.4 0.1,0.5 0.1,1 0.2,1.5 0.3,1.2 0.7,2.4 1,3.6 0.2,0.7 0.5,1.2 1,1.8 0.9,0.9 1.9,1.8 2.6,2.9 0.2,0.3 0.5,0.7 0.7,1 0.8,0.9 1.6,1.7 2.8,2.1 0.4,0.2 0.8,0.4 1.2,0.6 0.2,0.1 0.4,0.2 0.6,0.2 1.2,0.2 2.5,0.4 3.7,0.6 1.6,0.2 3.3,0 4.9,-0.1 1.1,-0.1 2.1,-0.3 3.2,-0.5 0.7,-0.1 1.4,-0.3 2.1,-0.6 0.9,-0.5 1.7,-1.1 2.7,-1.3 1,-0.6 2.1,-1 3.2,-1.7 1.3,-0.8 2.4,-1.7 3.3,-2.9 0.5,-0.6 0.9,-1.3 1.4,-1.9 0.1,-0.1 0.3,-0.1 0.4,-0.2 l 1.7,-2.5 z"
       id="path4148"
       inkscape:connector-curvature="0" />
    <path
       style="fill:#000000;fill-opacity:1;fill-rule:evenodd;stroke:#ffffff;stroke-width:1px;stroke-linecap:butt;stroke-linejoin:miter;stroke-opacity:0"
       d="m 405.78077,79.976468 -14.8,0.9 c -0.7,0 -1.4,0.1 -2,0.1 -1.4,0.1 -2.7,0.1 -4.1,0.2 -1.1,0.1 -2.1,0.2 -3.2,0.2 -1.2,0.1 -2.4,0.1 -3.6,0.3 -0.7,0.1 -1.4,0.1 -2,0.1 -0.2,0 -0.3,0 -0.5,-0.1 -0.1,0 -0.3,-0.2 -0.3,-0.4 0,-0.2 0,-0.3 0.1,-0.5 0.6,-1.7 0.9,-3.4 1.6,-5 0.4,-0.9 0.7,-1.8 1,-2.7 0.3,-0.8 0.7,-1.6 0.9,-2.4 0.6,-1.8 1.4,-3.6 2,-5.4 0.7,-2 1.5,-4.1 2.2,-6.1 0.3,-0.8 0.7,-1.6 0.9,-2.4 0.6,-2 1.4,-3.9 2.2,-5.9 0.5,-1.2 1,-2.4 1.4,-3.7 0.2,-0.7 0.6,-1.40001 0.8,-2.10001 0.3,-1.2 0.8,-2.4 1.2,-3.5 0.5,-1.3 1,-2.7 1.4,-4 0.3,-1 0.6,-2.1 0.9,-3.1 1.1,-2.9 1.8,-6 2.4,-9 0.2,-0.9 0.3,-1.9 0.3,-2.9 0,-0.9 -0.1,-1.8 0.1,-2.7 0,-0.2 0,-0.3 0,-0.5 0,-0.6 -0.4,-1.1 -1,-1.2 -0.3,-0.1 -0.6,-0.1 -0.8,-0.1 -1.2,-0.1 -2.4,-0.3 -3.5,-0.3 -0.7,0 -1.3,-0.2 -2,-0.3 -1.4,-0.1 -2.8,0.3 -4.2,0.3 -0.4,0 -0.6,0.2 -0.8,0.5 -0.2,0.4 -0.4,0.8 -0.4,1.3 0.1,0.5 0.1,1 -0.1,1.5 -0.2,0.7 -0.3,1.4 -0.3,2.2 0,0.4 -0.1,0.8 -0.2,1.2 -0.1,0.6 -0.2,1.2 -0.4,1.8 -0.2,1 -0.4,2 -0.7,3 -0.4,1.5 -0.8,3 -1.2,4.4 -0.3,1.2 -0.6,2.3 -1,3.4 -0.8,1.8 -1.4,3.7 -2,5.6 -0.7,2.4 -1.6,4.70001 -2.6,7.00001 -0.4,0.9 -0.8,1.9 -1.1,2.9 -0.6,1.9 -1.3,3.7 -2,5.6 -0.5,1.3 -0.9,2.7 -1.4,4 -0.5,1.4 -0.9,2.8 -1.5,4.2 -0.6,1.2 -1,2.4 -1.4,3.6 -0.7,1.7 -1.4,3.3 -1.9,5.1 -0.9,3.1 -2.1,6.1 -3.2,9.1 -0.3,0.7 -0.7,1.2 -1.3,1.4 -0.4,0.2 -0.7,0.3 -1.1,0.4 -0.1,0 -0.3,0 -0.4,-0.1 l 0,0 0,0 c 0.1,0.1 0.1,0.1 0.1,0.2 l -0.1,0 -1.7,2.5 c -0.1,1.3 -0.3,2.4 -0.7,3.6 -0.2,0.7 -0.3,1.4 -0.1,2.2 0.2,0.7 0.2,1.4 0.1,2 -0.1,0.9 0.1,1.8 -0.1,2.70001 0,0.1 0.1,0.2 0.2,0.2 0.2,0 0.4,0 0.7,0 0.6,0 1.1,-0.1 1.5,-0.7 0.5,-0.30001 1,-0.70001 1.6,-0.90001 1.1,-0.4 2.2,-0.7 3.2,-1 2.7,-0.7 5.5,-1.4 8.3,-1.9 1.7,-0.3 3.4,-0.5 5,-0.8 2.4,-0.3 4.9,-0.5 7.3,-0.6 0.3,0 0.7,0.1 1,0.1 l 14.9,-0.8 c 0.8,-0.2 1.7,-0.3 2.5,-0.4 1,0 1.9,-0.1 2.9,0.2 0.1,0 0.2,0 0.3,0 0.8,0.1 1.5,-0.3 1.8,-1 0.3,-0.7 0.6,-1.4 0.8,-2.1 0.4,-1.5 0.9,-3 1.1,-4.6 0.1,-0.4 0.2,-0.9 0.3,-1.3 0.3,-0.8 0.2,-1.6 0,-2.3 -0.1,-0.4 -0.3,-0.7 -0.7,-0.9 -0.3,-0.1 -0.6,-0.3 -1,-0.3 -0.5,0 -0.9,0 -1.4,0"
       id="path4150"
       inkscape:connector-curvature="0" />
    <path
       style="fill:#000000;fill-opacity:1;fill-rule:evenodd;stroke:#ffffff;stroke-width:1px;stroke-linecap:butt;stroke-linejoin:miter;stroke-opacity:0"
       d="m 405.68077,79.576468 c 0.1,-0.3 0.2,-0.5 0.3,-0.8 0.9,-1.9 1.8,-3.8 2.7,-5.7 1.7,-3.8 3.6,-7.5 5.4,-11.2 1,-1.9 1.9,-3.9 2.9,-5.8 0.1,-0.2 0.2,-0.4 0.3,-0.6 l 0.1,0 c 0.1,0.3 0,0.7 0,1 -0.5,2.5 -1,5 -1.5,7.5 -0.6,2.8 -1.1,5.6 -1.7,8.3 -0.4,2.1 -0.9,4.2 -1.4,6.3 -0.8,2.9 -1.2,5.9 -1.9,8.8 -0.3,1.3 -0.3,2.7 -0.6,4 -0.1,0.4 -0.2,0.9 -0.3,1.3 -0.6,3.3 -1.2,6.60001 -1.8,9.900012 0,0.2 -0.1,0.3 -0.1,0.5 -0.3,1 -0.5,2 -0.6,3 -0.1,0.6 -0.3,1.2 -0.4,1.8 -0.1,0.5 -0.4,0.9 -0.9,1.1 -0.3,0.1 -0.5,0.2 -0.8,0.3 -1.2,0.4 -2.4,0.8 -3.6,1.1 -0.1,0 -0.2,0.2 -0.2,0.2 0,0.2 0.1,0.3 0.2,0.4 0.1,0.2 0.4,0.3 0.6,0.3 0.9,-0.1 1.8,0.2 2.7,-0.2 0.1,-0.1 0.3,-0.1 0.5,-0.1 0.8,0 1.6,0 2.4,0.1 0.3,0 0.7,0.1 1,0.2 1.3,0.5 2.5,0.5 3.9,0.3 2.1,-0.3 4.3,-0.6 6.3,-1.3 0.4,-0.1 0.8,-0.2 1.2,-0.1 l 1.1,-9.9 c 0,-0.2 0,-0.500002 0,-0.700002 0.2,-1.10001 0.4,-2.10001 0.6,-3.20001 0.3,-1.7 0.5,-3.4 0.8,-5 0.3,-1.9 0.6,-3.8 1,-5.7 0.6,-2.7 1.1,-5.3 1.9,-7.9 0.1,-0.3 0.1,-0.6 0.2,-0.8 0.5,-2.4 1,-4.9 1.6,-7.3 0.3,-1.6 0.7,-3.1 1,-4.7 0.3,-1.4 0.5,-2.8 0.8,-4.2 0.8,-3.5 1.6,-7.1 2.4,-10.6 0.7,-2.9 1.4,-5.90001 2.1,-8.80001 0.3,-1.3 0.6,-2.5 0.8,-3.8 0.3,-1.6 0.6,-3.1 0.5,-4.7 0,-0.2 0,-0.3 -0.1,-0.5 0,-0.1 -0.1,-0.2 -0.2,-0.2 -0.1,-0.1 -0.2,-0.1 -0.3,-0.1 -1.2,-0.1 -2.4,-0.2 -3.6,-0.3 -0.8,-0.1 -1,0.1 -1.1,1 0,0.3 0,0.7 -0.1,1 -0.1,0.4 -0.2,0.8 -0.3,1.2 -0.1,0.2 -0.2,0.2 -0.4,0.2 -0.1,0 -0.4,-0.2 -0.3,-0.3 0,-0.4 0.1,-0.8 0.1,-1.2 0,-0.5 0,-1 0,-1.5 0,-0.1 -0.1,-0.2 -0.2,-0.2 -0.7,-0.2 -1.3,-0.4 -2,-0.5 -1,-0.1 -2,-0.4 -2.9,-0.8 -0.5,-0.2 -1,-0.4 -1.5,-0.3 -1,0.1 -2,0 -3,-0.2 -0.8,-0.2 -1.7,-0.3 -2.5,-0.4 -0.3,0 -0.5,0.1 -0.8,0.3 -0.5,0.4 -0.8,0.9 -1,1.5 -0.2,0.8 -0.6,1.6 -0.8,2.4 -0.5,1.3 -0.9,2.6 -1.5,3.8 -0.8,1.6 -1.6,3.3 -2.3,4.9 -0.7,1.7 -1.6,3.2 -2.4,4.90001 -0.3,0.8 -0.7,1.6 -1,2.3 -0.5,1.2 -1.1,2.4 -1.7,3.5 -0.5,1 -0.9,1.9 -1.4,2.9 -0.9,1.9 -1.9,3.9 -2.9,5.8 -0.6,1.2 -1.1,2.5 -1.7,3.7 -1.5,2.8 -2.7,5.9 -4.1,8.8 -0.9,1.8 -1.7,3.6 -2.6,5.3 -0.3,0.7 -7.8,13.9 -7.8,14 -0.1,0.4 -0.2,0.8 -0.4,1.1 -0.5,1 -0.9,1.9 -1.4,2.9 -0.8,1.70001 -1.7,3.500012 -2.5,5.200012 -0.3,0.6 -0.6,1.1 -1.1,1.4 -0.1,0.1 -0.2,0.2 -0.4,0.4 -0.1,0.1 -0.1,0.5 0,0.6 0.4,0.5 1,1 1.6,1.1 1.5,0.3 2.9,0.8 4.5,0.9 1,0.1 1.9,0.3 2.9,0.5 0.6,0.1 1.2,0.2 1.8,0.3 0.5,0.1 1,0 1.5,-0.3 0.2,-0.1 0.4,-0.3 0.5,-0.5 0.3,-1 0.9,-2 1.3,-2.9 0.7,-1.5 1.5,-2.9 2.3,-4.4 0.9,-1.700012 1.6,-3.400012 2.4,-5.100012 0.4,-0.9 0.9,-1.7 1.6,-2.4 0,0 6.3,-12.9 6.3,-13.1 z"
       id="path4152"
       inkscape:connector-curvature="0" />
    <path
       stylestyle="fill:#000000;fill-rule:evenodd;stroke:#ffffff;stroke-width:1px;stroke-linecap:butt;stroke-linejoin:miter;stroke-opacity:0;fill-opacity:1"
       d="m 458.28077,119.07648 c 0.1,-0.1 0.3,-1 0.3,-1.1 0.6,-1.5 1.4,-2.9 2,-4.3 1,-2.3 2.3,-4.5 3.6,-6.8 1.1,-2 2.2,-3.9 3.3,-6 1.7,-3.300012 3.5,-6.500012 5.6,-9.500012 0.8,-1.2 1.6,-2.3 2.4,-3.5 1.2,-1.9 2.5,-3.8 3.7,-5.7 1.6,-2.6 3.2,-5.2 5,-7.7 1.1,-1.5 2.1,-3.1 3.3,-4.6 1.4,-1.8 2.8,-3.8 4.1,-5.6 0.6,-0.9 1.1,-1.8 1.7,-2.8 0.2,-0.3 0,-0.7 -0.3,-0.8 -0.3,-0.1 -0.6,-0.3 -1,-0.3 -0.9,-0.2 -1.8,-0.4 -2.6,-0.8 -0.4,-0.2 -0.8,-0.1 -1.2,0 -0.2,0.1 -0.5,0 -0.6,-0.2 -0.2,-0.3 -0.4,-0.5 -0.8,-0.6 -0.3,-0.1 -0.7,-0.2 -1,-0.2 -0.5,-0.1 -0.9,-0.1 -1.3,0.2 -0.2,0.1 -0.4,0.1 -0.6,0 -0.6,-0.3 -1.2,-0.2 -1.8,-0.2 -0.4,0 -0.8,0.2 -1,0.5 -0.6,0.7 -1.3,1.4 -1.8,2.2 -2.2,3.2 -4.6,6.3 -6.8,9.6 -1.3,1.9 -2.5,3.8 -3.7,5.7 -0.9,1.5 -1.9,3 -2.8,4.4 -0.3,0.5 -0.7,1.1 -1,1.6 -1,1.6 -2.1,3.3 -3.1,4.9 -1.5,2.3 -2.9,4.7 -4.3,7.1 -1.4,2.5 -2.7,5.10001 -4.2,7.600012 -0.2,0.3 -0.4,0.7 -0.7,1 0,0 -0.1,0 -0.2,0 l -0.1,-0.1 c 0,-2 -0.1,-4.100002 0.2,-6.100012 0.2,-2.1 0.5,-4.3 0.8,-6.4 0.2,-1.6 0.5,-3.1 0.8,-4.7 0.6,-3.7 1.2,-7.5 1.9,-11.2 0.6,-3 1.1,-6 1.6,-9.1 0.1,-1.1 0.4,-2.1 0.4,-3.2 0,-0.7 0.3,-1.3 0.7,-1.9 0.3,-0.5 0.7,-0.9 0.9,-1.4 0.5,-1 1.1,-1.8 1.8,-2.6 0.2,-0.3 0.5,-0.5 0.7,-0.7 0.5,-0.4 0.8,-1 0.9,-1.6 0,-0.2 0.1,-0.4 0.1,-0.7 0.1,-0.4 -0.1,-0.8 -0.5,-1 -0.5,-0.3 -1,-0.5 -1.6,-0.6 -0.4,-0.1 -0.8,-0.2 -1.2,-0.3 -0.2,-0.1 -0.4,-0.2 -0.5,-0.5 -0.1,-0.4 -0.2,-0.9 -0.4,-1.3 -0.1,-0.2 -0.3,-0.4 -0.5,-0.4 -1,0 -1.9,-0.2 -2.9,0.1 -1.2,0.3 -2.4,0.3 -3.5,0.2 -1.5,-0.2 -3.1,0 -4.6,0.1 -0.5,0 -0.9,0.4 -0.8,0.9 0.1,1 0.1,1.9 0,2.9 -0.2,1.4 -0.3,2.8 -0.6,4.2 -0.1,0.5 -0.3,0.9 -0.5,1.2 -1,1.5 -1.9,3.1 -2.8,4.7 -1,1.8 -2.1,3.5 -3.1,5.3 -1,1.8 -2.3,3.5 -3.2,5.4 0,0.1 -0.1,0.2 -0.2,0.3 -0.4,0.7 -0.8,1.4 -1.2,2 -0.8,1.3 -1.5,2.6 -2.3,4 -1.7,2.8 -3.4,5.5 -5,8.3 -0.8,1.4 -1.7,2.8 -2.5,4.3 -0.9,1.9 -1.9,3.7 -2.8,5.60001 -0.2,0.5 -0.5,0.9 -0.7,1.300002 0,0 -0.2,0 -0.3,0.1 0,0 -1,1.6 -1.6,3.3 -0.5,1.7 -0.6,3.5 -0.6,4.2 -0.1,1.1 1.1,2.4 1.1,2.4 1.4,0.3 2.8,0.4 4.2,0.8 1,0.3 2,0.3 3,0.4 0.4,0 0.9,0 1.4,-0.1 0.5,-0.1 0.9,-0.4 1.2,-0.9 0.1,-0.1 0.1,-0.2 0.1,-0.3 0.8,-1.7 1.6,-3.4 2.5,-5 0.2,-0.3 0.3,-0.6 0.4,-0.9 0.7,-1.5 1.3,-3 2,-4.500002 0.6,-1.30001 1.2,-2.70001 2.1,-3.90001 0.5,-1.3 1.3,-2.5 2,-3.7 0.3,-0.6 0.7,-1.1 1.1,-1.7 0.1,-0.1 0.2,-0.2 0.3,-0.1 0.1,0.1 0.1,0.2 0.1,0.3 0,0.6 0,1.2 -0.1,1.9 -0.1,0.7 -0.2,1.4 -0.8,2 -0.3,0.3 -0.3,0.7 -0.2,1.1 0,0.1 0,0.1 0.1,0.2 0.4,0.5 0.4,1 0.4,1.6 -0.1,2.800012 -0.3,5.700012 -0.4,8.500012 -0.2,2.5 -0.4,5 -0.6,7.5 0,0.4 0,0.8 -0.1,1.2 -0.2,0.8 -0.2,1.7 -0.2,2.5 0,0.9 -0.1,1.8 -0.1,2.7 0,0.3 0,0.7 0,1 0,0.5 0.3,0.7 0.7,0.9 0.6,0.3 1.3,0.4 2,0.5 0.7,0.1 1.5,0.1 2.2,0.1 0.5,0 0.9,0.2 1.2,0.5 0.7,0.9 1.7,1.2 2.8,1.5 0.4,0.1 0.9,0.2 1.3,0.3 0.7,0.1 1.3,0.2 2,0.3 0.5,0.1 1.1,0.3 1.6,0.5 0,0 4.1,-3.5 5.7,-6.3 z"
       id="path4154"
       inkscape:connector-curvature="0" />
  </g>
</svg>
